<svg id="Capa_1" data-name="Capa 1" xmlns="http://www.w3.org/2000/svg" viewBox="0 0 14.43 15.47"><defs><style>.cls-1{fill:#73c6f7;}.cls-1,.cls-10,.cls-11,.cls-12,.cls-13,.cls-14,.cls-15,.cls-16,.cls-2,.cls-3,.cls-4,.cls-5,.cls-6,.cls-7,.cls-8,.cls-9{stroke:#000;stroke-width:0.1px;}.cls-2{fill:#fff;}.cls-3{fill:#bda563;}.cls-4{fill:none;}.cls-5{fill:#008c39;}.cls-7{fill:#f7c600;}.cls-8{fill:#de2118;}.cls-9{fill:#d62921;}.cls-10{fill:#c6a563;}.cls-11{fill:#f7c6b5;}.cls-12{fill:#cec6c6;}.cls-13{fill:#846342;}.cls-14{fill:#009442;}.cls-15{fill:#734a94;}.cls-16{fill:#6b5a39;}</style></defs><g id="g3521"><path id="path3523" class="cls-1" d="M1.62,1.45a4.46,4.46,0,0,1,0,2,1.65,1.65,0,0,0,0,.86c.05.12-.09.43-.08.57a16.66,16.66,0,0,1,.56,1.89c0,.51,2.44,3.68,2.68,2.8s-.45-5-.45-5Z" transform="translate(-0.69 -0.46)"/><path id="path3525" class="cls-2" d="M2.37,2.42A13.08,13.08,0,0,1,2.29,4c0,.49.55,1.7.56,2.3s-.44,1.27.29,2A7.86,7.86,0,0,0,4.59,9.38a13.44,13.44,0,0,1-.9-2.49,4.51,4.51,0,0,0-.2-1.73,2.19,2.19,0,0,1-.23-1.63A9.85,9.85,0,0,0,2.37,2.42Z" transform="translate(-0.69 -0.46)"/><path id="path3527" class="cls-1" d="M1.53,6.07a3,3,0,0,0-.07,1.52,6.18,6.18,0,0,0-.08.88,5.27,5.27,0,0,0,.16,1,3.71,3.71,0,0,0,0,.77c0,.24.26.38.26.52a1.87,1.87,0,0,0,.05.8c.13.22.38.27.44.37s.45,1.51,1.8.9c.26-.12.85-.07,1.21-.65L4.48,9.3Z" transform="translate(-0.69 -0.46)"/><path id="path3529" class="cls-2" d="M2.41,7.05a6.36,6.36,0,0,0,.07,2.53c0,.69.28.66.28.66l.46,1.31.26.26.08-.69a14.21,14.21,0,0,1-.13-2.91s-1-1.16-1-1.16Z" transform="translate(-0.69 -0.46)"/><g id="g3531"><polygon id="polygon3533" class="cls-3" points="0.32 5.37 0.81 5.5 0.87 5.47 0.79 5 0.08 4.67 0.32 5.37"/><line id="line3535" class="cls-4" x1="0.08" y1="4.67" x2="0.75" y2="5.41"/><polygon id="polygon3537" class="cls-3" points="0.82 5.63 0.95 5.51 3.77 8.7 3.64 8.93 0.82 5.63"/><path id="path3539" class="cls-3" d="M1.63,6c.06,0,0-.23-.16-.12s-.13.25,0,.25Z" transform="translate(-0.69 -0.46)"/></g><g id="g3541"><polygon id="polygon3543" class="cls-3" points="0.32 0.8 0.81 0.93 0.87 0.9 0.79 0.43 0.08 0.1 0.32 0.8"/><line id="line3545" class="cls-4" x1="0.08" y1="0.09" x2="0.75" y2="0.84"/><polygon id="polygon3547" class="cls-3" points="0.82 1.06 0.95 0.94 3.77 4.13 3.64 4.36 0.82 1.06"/><path id="path3549" class="cls-3" d="M1.63,1.39c.06,0,0-.23-.16-.12s-.13.25,0,.25Z" transform="translate(-0.69 -0.46)"/></g><path id="path3551" class="cls-1" d="M5.82,12.09A1.71,1.71,0,0,1,5,13.28a4.17,4.17,0,0,0,.57.26,2.77,2.77,0,0,0,.69-1.37Z" transform="translate(-0.69 -0.46)"/><path id="path3553" class="cls-1" d="M7.11,12.13a3.23,3.23,0,0,1-.9,1.39c0,.13.38.25.62.08a2.72,2.72,0,0,0,.64-1.43Z" transform="translate(-0.69 -0.46)"/></g><g id="g3555"><path id="path3557" class="cls-1" d="M14.18,1.45a4.46,4.46,0,0,0,0,2,1.65,1.65,0,0,1,0,.86c-.05.12.09.43.08.57a16.66,16.66,0,0,0-.56,1.89c0,.51-2.44,3.68-2.68,2.8s.45-5,.45-5l2.74-3.16Z" transform="translate(-0.69 -0.46)"/><path id="path3559" class="cls-2" d="M13.42,2.42A13.08,13.08,0,0,0,13.5,4c0,.49-.55,1.7-.56,2.3s.44,1.27-.28,2a7.86,7.86,0,0,1-1.45,1.11,13.17,13.17,0,0,0,.9-2.49,4.32,4.32,0,0,1,.2-1.73,2.18,2.18,0,0,0,.22-1.63A11.15,11.15,0,0,1,13.42,2.42Z" transform="translate(-0.69 -0.46)"/><path id="path3561" class="cls-1" d="M14.26,6.07a3,3,0,0,1,.07,1.52,6.18,6.18,0,0,1,.08.88,5.59,5.59,0,0,1-.15,1,4.57,4.57,0,0,1,0,.77c0,.24-.26.38-.26.52a1.74,1.74,0,0,1-.06.8c-.13.22-.38.27-.44.37a1.26,1.26,0,0,1-1.8.9c-.26-.12-.85-.07-1.2-.65l.8-2.86Z" transform="translate(-0.69 -0.46)"/><path id="path3563" class="cls-2" d="M13.39,7.05a6.55,6.55,0,0,1-.07,2.53c-.05.69-.28.66-.28.66l-.47,1.31-.26.26-.08-.69a13.73,13.73,0,0,0,.14-2.91s1-1.16,1-1.16Z" transform="translate(-0.69 -0.46)"/><g id="g3565"><polygon id="polygon3567" class="cls-3" points="14.11 5.37 13.62 5.5 13.56 5.47 13.63 5 14.34 4.67 14.11 5.37"/><line id="line3569" class="cls-4" x1="14.34" y1="4.67" x2="13.67" y2="5.41"/><polygon id="polygon3571" class="cls-3" points="13.6 5.63 13.48 5.51 10.66 8.7 10.79 8.93 13.6 5.63"/><path id="path3573" class="cls-3" d="M14.16,6c-.06,0,.05-.23.17-.12s.12.25,0,.25Z" transform="translate(-0.69 -0.46)"/></g><g id="g3575"><polygon id="polygon3577" class="cls-3" points="14.11 0.8 13.62 0.93 13.56 0.9 13.63 0.43 14.34 0.1 14.11 0.8"/><line id="line3579" class="cls-4" x1="14.34" y1="0.09" x2="13.67" y2="0.84"/><polygon id="polygon3581" class="cls-3" points="13.6 1.06 13.48 0.94 10.66 4.13 10.79 4.36 13.6 1.06"/><path id="path3583" class="cls-3" d="M14.16,1.39c-.06,0,.05-.23.17-.12s.12.25,0,.25Z" transform="translate(-0.69 -0.46)"/></g><path id="path3585" class="cls-1" d="M10,12.09a1.71,1.71,0,0,0,.83,1.19,4.29,4.29,0,0,1-.58.26,2.74,2.74,0,0,1-.68-1.37Z" transform="translate(-0.69 -0.46)"/><path id="path3587" class="cls-1" d="M8.69,12.13a3.13,3.13,0,0,0,.89,1.39c0,.13-.38.25-.62.08a2.89,2.89,0,0,1-.64-1.43Z" transform="translate(-0.69 -0.46)"/></g><g id="g3589"><path id="path3591" class="cls-5" d="M7.06,14a2,2,0,0,0-1.22.69c.1.16.28.08.42-.06a2.59,2.59,0,0,1,.88-.47A.64.64,0,0,1,7.06,14Z" transform="translate(-0.69 -0.46)"/><g id="g3593"><path id="path3595" class="cls-5" d="M3.25,7.41A2.1,2.1,0,0,0,3,6.91C3,7.1,2.81,7.8,3.25,7.41Z" transform="translate(-0.69 -0.46)"/><path id="path3597" class="cls-5" d="M3.21,7.72c.38-.16,0-.45.24-.76C3.18,7.07,2.87,7.87,3.21,7.72Z" transform="translate(-0.69 -0.46)"/><path id="path3599" class="cls-5" d="M3.07,7.93a.58.58,0,0,0,.6-.65C3.56,7.46,2.79,7.65,3.07,7.93Z" transform="translate(-0.69 -0.46)"/><line id="line3601" class="cls-4" x1="2.49" y1="7.34" x2="2.72" y2="7.15"/><path id="path3603" class="cls-5" d="M2.93,9.07c-.05-.51-.09-.54-.35-.73C2.51,8.67,2.57,9,2.93,9.07Z" transform="translate(-0.69 -0.46)"/><polygon id="polygon3605" class="cls-5" points="2.19 8.45 2.27 8.5 2.26 7.52 2.19 7.48 2.19 8.45"/><path id="path3607" class="cls-5" d="M2.93,9.35c0-.25-.43-.92-.57-1.06a.67.67,0,0,0,.34.65c-.22-.21-.28-.21-.36-.21C2.34,9.07,2.76,9.65,2.93,9.35Z" transform="translate(-0.69 -0.46)"/><path id="path3609" class="cls-5" d="M2.85,9.49c-.1-.53,0-.64.42-.89C3.27,9.1,3.18,9.34,2.85,9.49Z" transform="translate(-0.69 -0.46)"/><path id="path3611" class="cls-5" d="M3,9.51c-.2-.2-.22-.26-.5-.32C2.42,9.43,2.85,9.8,3,9.51Z" transform="translate(-0.69 -0.46)"/><path id="path3613" class="cls-5" d="M3,10.17a4.91,4.91,0,0,1,0-.55s.53-.36.43-.84c-.2.26-.55.42-.52.79a4.26,4.26,0,0,1,0,.62S2.94,10.21,3,10.17Z" transform="translate(-0.69 -0.46)"/><path id="path3615" class="cls-5" d="M3,8.47c.16-.37.12-.4.53-.42C3.43,8.51,3.21,8.52,3,8.47Z" transform="translate(-0.69 -0.46)"/><line id="line3617" class="cls-4" x1="2.41" y1="7.92" x2="2.6" y2="7.76"/><path id="path3619" class="cls-5" d="M3,8.07c.2-.2.34-.4-.19-1.06C2.55,7.45,2.75,8,3,8.07Z" transform="translate(-0.69 -0.46)"/><line id="line3621" class="cls-4" x1="2.14" y1="6.87" x2="2.25" y2="7.43"/></g><g id="g3623"><path id="path3625" class="cls-5" d="M3.62,12c.19.11-.1-.83,0-1C3.43,11.28,3.34,11.82,3.62,12Z" transform="translate(-0.69 -0.46)"/><path id="path3627" class="cls-5" d="M3.89,12.43c-.27-.26.12-.72-.19-1.11a.67.67,0,0,0-.12.49,1.88,1.88,0,0,0-.34-.35,1.08,1.08,0,0,0,0,.31.27.27,0,0,0-.27,0,.57.57,0,0,0,.13.2c-.19-.07-.15,0-.29,0,.26.16.45.47.73.4.12,0,.24.06.31.24.1,0,.12,0,.05-.12Z" transform="translate(-0.69 -0.46)"/><path id="path3629" class="cls-4" d="M3.58,11.81a.62.62,0,0,1,.1.36" transform="translate(-0.69 -0.46)"/><path id="path3631" class="cls-4" d="M3.23,11.77a3.27,3.27,0,0,1,.31.32" transform="translate(-0.69 -0.46)"/><path id="path3633" class="cls-4" d="M3.08,11.94a.72.72,0,0,1,.33.27" transform="translate(-0.69 -0.46)"/></g><g id="g3635"><path id="path3637" class="cls-5" d="M3.41,12.58a.45.45,0,0,1,.69.16C3.86,12.8,3.49,12.53,3.41,12.58Z" transform="translate(-0.69 -0.46)"/><path id="path3639" class="cls-5" d="M4.15,12.81a1,1,0,0,0-.21-.67C3.83,12.39,3.71,12.45,4.15,12.81Z" transform="translate(-0.69 -0.46)"/><path id="path3641" class="cls-5" d="M4.42,13.11c-.45-.26-.88-.24-1,0C3.8,13,4.16,13.41,4.42,13.11Z" transform="translate(-0.69 -0.46)"/><path id="path3643" class="cls-5" d="M4.82,13.07c-.18,0-.24,0-.27,0s-.13,0-.26-.15-.62-.29-.75-.15a2,2,0,0,0,.88.44c.1-.06.26,0,.36,0S4.82,13.07,4.82,13.07Z" transform="translate(-0.69 -0.46)"/><path id="path3645" class="cls-5" d="M4.55,13c0-.2-.37-.34-.39-.65C4.07,12.56,4.19,13.18,4.55,13Z" transform="translate(-0.69 -0.46)"/></g><g id="g3647"><path id="path3649" class="cls-5" d="M4.28,13.46a.54.54,0,0,1,.84,0C4.86,13.59,4.36,13.39,4.28,13.46Z" transform="translate(-0.69 -0.46)"/><path id="path3651" class="cls-5" d="M5.19,13.53a1.23,1.23,0,0,0-.42-.72C4.71,13.13,4.59,13.23,5.19,13.53Z" transform="translate(-0.69 -0.46)"/><path id="path3653" class="cls-5" d="M5.83,13.42c-.19,0-.25.07-.31,0-.07-.36-.44-.54-.54-.67a.84.84,0,0,0,.27.76c-.26,0-.72-.14-.88.21a1.09,1.09,0,0,0,1-.14s.38,0,.51,0,.06-.11,0-.12Z" transform="translate(-0.69 -0.46)"/></g><g id="g3655"><path id="path3657" class="cls-5" d="M5.4,13.88a.53.53,0,0,1,.78-.31C6,13.79,5.45,13.79,5.4,13.88Z" transform="translate(-0.69 -0.46)"/><path id="path3659" class="cls-5" d="M6.27,13.61a1.18,1.18,0,0,0-.66-.51C5.67,13.42,5.6,13.56,6.27,13.61Z" transform="translate(-0.69 -0.46)"/><path id="path3661" class="cls-5" d="M6.65,13.58c-.18,0-.34,0-.39-.12a1.42,1.42,0,0,0-.39-.54.61.61,0,0,0,.34.64.8.8,0,0,0-.53.42c.26-.17.2-.1.35-.1a.4.4,0,0,0,.3-.12s.09-.06.25-.06.07-.12.07-.12Z" transform="translate(-0.69 -0.46)"/></g><g id="g3663"><path id="path3665" class="cls-5" d="M2.84,10.5c0-.57,0-.66.47-1A1,1,0,0,1,2.84,10.5Z" transform="translate(-0.69 -0.46)"/><path id="path3667" class="cls-5" d="M3.1,10.49c-.08-.44-.57-.65-.75-.83C2.39,10,2.77,10.52,3.1,10.49Z" transform="translate(-0.69 -0.46)"/><path id="path3669" class="cls-5" d="M3,10.94c0-.41,0-.68-.5-.65A1.19,1.19,0,0,0,3,10.94Z" transform="translate(-0.69 -0.46)"/><path id="path3671" class="cls-5" d="M3,10.85c-.15-.41,0-.59.38-1C3.42,10.45,3.32,10.6,3,10.85Z" transform="translate(-0.69 -0.46)"/><path id="path3673" class="cls-5" d="M3.3,11.64c-.12-.47.12-.52.12-1a.6.6,0,0,1-.2.19c0-.08-.2-.2-.2-.25a.36.36,0,0,0-.13.23c-.17-.1-.37.06-.55-.12.32.9.63.29.89.92,0,.08.09.06.07,0Z" transform="translate(-0.69 -0.46)"/><path id="path3675" class="cls-4" d="M3.22,10.88s0,.25,0,.33" transform="translate(-0.69 -0.46)"/><path id="path3677" class="cls-4" d="M2.88,10.86a.74.74,0,0,1,.16.4" transform="translate(-0.69 -0.46)"/></g></g><g id="g3679"><path id="path3681" class="cls-5" d="M8.68,14a2,2,0,0,1,1.21.69c-.1.16-.28.08-.41-.06a3,3,0,0,0-.88-.47L8.68,14Z" transform="translate(-0.69 -0.46)"/><g id="g3683"><path id="path3685" class="cls-5" d="M12.48,7.41a1.91,1.91,0,0,1,.29-.5C12.77,7.1,12.92,7.8,12.48,7.41Z" transform="translate(-0.69 -0.46)"/><path id="path3687" class="cls-5" d="M12.52,7.72c-.37-.16,0-.45-.24-.76C12.56,7.07,12.86,7.87,12.52,7.72Z" transform="translate(-0.69 -0.46)"/><path id="path3689" class="cls-5" d="M12.66,7.93c-.41,0-.59-.32-.59-.65C12.17,7.46,12.94,7.65,12.66,7.93Z" transform="translate(-0.69 -0.46)"/><line id="line3691" class="cls-4" x1="11.87" y1="7.34" x2="11.64" y2="7.15"/><path id="path3693" class="cls-5" d="M12.81,9.07c0-.51.08-.54.34-.73C13.22,8.67,13.17,9,12.81,9.07Z" transform="translate(-0.69 -0.46)"/><polygon id="polygon3695" class="cls-5" points="12.17 8.45 12.09 8.5 12.1 7.52 12.17 7.48 12.17 8.45"/><path id="path3697" class="cls-5" d="M12.8,9.35c0-.25.43-.92.57-1.06a.68.68,0,0,1-.33.65c.21-.21.27-.21.35-.21C13.39,9.07,13,9.65,12.8,9.35Z" transform="translate(-0.69 -0.46)"/><path id="path3699" class="cls-5" d="M12.88,9.49c.1-.53,0-.64-.42-.89C12.46,9.1,12.55,9.34,12.88,9.49Z" transform="translate(-0.69 -0.46)"/><path id="path3701" class="cls-5" d="M12.78,9.51c.21-.2.22-.26.5-.32C13.31,9.43,12.88,9.8,12.78,9.51Z" transform="translate(-0.69 -0.46)"/><path id="path3703" class="cls-5" d="M12.78,10.17a5,5,0,0,0,0-.55s-.53-.36-.43-.84c.21.26.55.42.52.79a4.26,4.26,0,0,0,0,.62s-.09,0-.1,0Z" transform="translate(-0.69 -0.46)"/><path id="path3705" class="cls-5" d="M12.78,8.47c-.16-.37-.12-.4-.53-.42C12.3,8.51,12.52,8.52,12.78,8.47Z" transform="translate(-0.69 -0.46)"/><line id="line3707" class="cls-4" x1="11.95" y1="7.92" x2="11.77" y2="7.76"/><path id="path3709" class="cls-5" d="M12.78,8.07c-.19-.2-.34-.4.19-1.06C13.18,7.45,13,8,12.78,8.07Z" transform="translate(-0.69 -0.46)"/><line id="line3711" class="cls-4" x1="12.22" y1="6.87" x2="12.11" y2="7.43"/></g><g id="g3713"><path id="path3715" class="cls-5" d="M12.12,12c-.19.11.1-.83,0-1C12.3,11.28,12.39,11.82,12.12,12Z" transform="translate(-0.69 -0.46)"/><path id="path3717" class="cls-5" d="M11.84,12.43c.28-.26-.12-.72.19-1.11a.67.67,0,0,1,.12.49,1.88,1.88,0,0,1,.34-.35,1.08,1.08,0,0,1,0,.31.27.27,0,0,1,.27,0,.57.57,0,0,1-.13.2c.19-.07.15,0,.29,0-.26.16-.45.47-.73.4-.12,0-.24.06-.31.24-.09,0-.11,0-.05-.12Z" transform="translate(-0.69 -0.46)"/><path id="path3719" class="cls-4" d="M12.15,11.81a.62.62,0,0,0-.1.36" transform="translate(-0.69 -0.46)"/><path id="path3721" class="cls-4" d="M12.5,11.77a3.43,3.43,0,0,0-.3.32" transform="translate(-0.69 -0.46)"/><path id="path3723" class="cls-4" d="M12.65,11.94a.72.72,0,0,0-.32.27" transform="translate(-0.69 -0.46)"/></g><g id="g3725"><path id="path3727" class="cls-5" d="M12.32,12.58a.45.45,0,0,0-.69.16C11.87,12.8,12.24,12.53,12.32,12.58Z" transform="translate(-0.69 -0.46)"/><path id="path3729" class="cls-5" d="M11.59,12.81a.94.94,0,0,1,.21-.67C11.9,12.39,12,12.45,11.59,12.81Z" transform="translate(-0.69 -0.46)"/><path id="path3731" class="cls-5" d="M11.31,13.11c.45-.26.88-.24,1,0C11.93,13,11.58,13.41,11.31,13.11Z" transform="translate(-0.69 -0.46)"/><path id="path3733" class="cls-5" d="M10.92,13.07c.18,0,.24,0,.27,0s.13,0,.26-.15.61-.29.75-.15a2,2,0,0,1-.89.44c-.1-.06-.26,0-.36,0s0-.07,0-.07Z" transform="translate(-0.69 -0.46)"/><path id="path3735" class="cls-5" d="M11.19,13c0-.2.36-.34.39-.65C11.67,12.56,11.54,13.18,11.19,13Z" transform="translate(-0.69 -0.46)"/></g><g id="g3737"><path id="path3739" class="cls-5" d="M11.46,13.46a.54.54,0,0,0-.84,0C10.87,13.59,11.37,13.39,11.46,13.46Z" transform="translate(-0.69 -0.46)"/><path id="path3741" class="cls-5" d="M10.54,13.53a1.23,1.23,0,0,1,.42-.72c.06.32.19.42-.42.72Z" transform="translate(-0.69 -0.46)"/><path id="path3743" class="cls-5" d="M9.9,13.42c.19,0,.25.07.31,0,.07-.36.44-.54.54-.67a.84.84,0,0,1-.26.76c.26,0,.71-.14.88.21a1.11,1.11,0,0,1-1-.14c-.05,0-.38,0-.51,0s-.06-.11,0-.12Z" transform="translate(-0.69 -0.46)"/></g><g id="g3745"><path id="path3747" class="cls-5" d="M10.33,13.88a.53.53,0,0,0-.77-.31C9.74,13.79,10.28,13.79,10.33,13.88Z" transform="translate(-0.69 -0.46)"/><path id="path3749" class="cls-5" d="M9.47,13.61a1.2,1.2,0,0,1,.65-.51C10.06,13.42,10.13,13.56,9.47,13.61Z" transform="translate(-0.69 -0.46)"/><path id="path3751" class="cls-5" d="M9.08,13.58c.18,0,.34,0,.39-.12a1.54,1.54,0,0,1,.39-.54.61.61,0,0,1-.34.64.78.78,0,0,1,.53.42c-.26-.17-.2-.1-.35-.1a.4.4,0,0,1-.3-.12s-.09-.06-.25-.06-.07-.12-.07-.12Z" transform="translate(-0.69 -0.46)"/></g><g id="g3753"><path id="path3755" class="cls-5" d="M12.89,10.5c0-.57,0-.66-.47-1A1.07,1.07,0,0,0,12.89,10.5Z" transform="translate(-0.69 -0.46)"/><path id="path3757" class="cls-5" d="M12.64,10.49c.07-.44.56-.65.74-.83C13.35,10,13,10.52,12.64,10.49Z" transform="translate(-0.69 -0.46)"/><path id="path3759" class="cls-5" d="M12.69,10.94c0-.41.05-.68.5-.65A1.19,1.19,0,0,1,12.69,10.94Z" transform="translate(-0.69 -0.46)"/><path id="path3761" class="cls-5" d="M12.74,10.85c.15-.41,0-.59-.37-1C12.31,10.45,12.42,10.6,12.74,10.85Z" transform="translate(-0.69 -0.46)"/><path id="path3763" class="cls-5" d="M12.43,11.64c.13-.47-.12-.52-.12-1a.72.72,0,0,0,.2.19c.05-.08.2-.2.2-.25a.36.36,0,0,1,.13.23c.17-.1.38.06.55-.12-.31.9-.63.29-.88.92,0,.08-.1.06-.08,0Z" transform="translate(-0.69 -0.46)"/><path id="path3765" class="cls-4" d="M12.51,10.88s.05.25.05.33" transform="translate(-0.69 -0.46)"/><path id="path3767" class="cls-4" d="M12.85,10.86a.74.74,0,0,0-.16.4" transform="translate(-0.69 -0.46)"/></g></g><g id="g3769"><polygon id="polygon3771" class="cls-6" points="7.05 13.13 6.26 13.13 6 13.24 6.21 13.44 7.05 13.27 7.05 13.13"/><g id="g3773"><path id="path3775" class="cls-1" d="M7.63,13.67c-.21.12-.9.33-.87,0-.18,0-.15.24-.15.24,0,.27.4.4,1.1,0a.32.32,0,0,0-.08-.24Z" transform="translate(-0.69 -0.46)"/><path id="path3777" class="cls-2" d="M7.66,13.85a.18.18,0,0,0,0-.1,1.29,1.29,0,0,1-1,.13.35.35,0,0,0,.06.14,1.61,1.61,0,0,0,1-.17Z" transform="translate(-0.69 -0.46)"/></g><g id="g3779"><path id="path3781" class="cls-1" d="M7.76,13.58c-.34-.43-1.39-.69-1.15.3,0-.22.58-.27,1-.23Z" transform="translate(-0.69 -0.46)"/><path id="path3783" class="cls-2" d="M7.68,13.62l0,0s-.79-.46-1.14-.05a.41.41,0,0,0,0,.11C6.68,13.49,7.19,13.43,7.68,13.62Z" transform="translate(-0.69 -0.46)"/></g></g><g id="g3785"><polygon id="polygon3787" class="cls-6" points="7.42 13.13 8.21 13.13 8.47 13.24 8.26 13.44 7.42 13.27 7.42 13.13"/><g id="g3789"><path id="path3791" class="cls-1" d="M8.22,13.67c.2.12.89.33.86,0,.19,0,.15.24.15.24,0,.27-.39.4-1.1,0a.35.35,0,0,1,.09-.24Z" transform="translate(-0.69 -0.46)"/><path id="path3793" class="cls-2" d="M8.19,13.85a.18.18,0,0,1,0-.1,1.28,1.28,0,0,0,1,.13.27.27,0,0,1-.07.14,1.57,1.57,0,0,1-1-.17Z" transform="translate(-0.69 -0.46)"/></g><g id="g3795"><path id="path3797" class="cls-1" d="M8.08,13.58c.34-.43,1.39-.69,1.16.3,0-.22-.59-.27-1-.23Z" transform="translate(-0.69 -0.46)"/><path id="path3799" class="cls-2" d="M8.17,13.62l-.05,0s.79-.46,1.14-.05a.41.41,0,0,1,0,.11C9.17,13.49,8.66,13.43,8.17,13.62Z" transform="translate(-0.69 -0.46)"/></g></g><g id="g3801"><path id="path3803" class="cls-1" d="M8.14,13.92a6.76,6.76,0,0,1,.2,1.91l-.25-.18-.3.18L7.94,14l.2,0Z" transform="translate(-0.69 -0.46)"/><path id="path3805" class="cls-2" d="M8.11,14c0,.28.09,1.73.09,1.73l-.11-.08L8,15.72,8,14Z" transform="translate(-0.69 -0.46)"/><path id="path3807" class="cls-1" d="M8.05,14l0,1.32-.52,0a12,12,0,0,1,.14-1.39.47.47,0,0,0,.35.09Z" transform="translate(-0.69 -0.46)"/><path id="path3809" class="cls-2" d="M7.89,15.33V14L7.8,14a11,11,0,0,0-.07,1.34Z" transform="translate(-0.69 -0.46)"/><ellipse id="ellipse3811" class="cls-1" cx="7.26" cy="13.24" rx="0.36" ry="0.34"/><path id="path3813" class="cls-2" d="M7.87,14H8v-.66H7.87Z" transform="translate(-0.69 -0.46)"/></g><path id="path3815" class="cls-7" d="M5.61,3.41l.49-.15c-.29,0-.58-.71-.95-.52.51-.65,1,.36,1.34.19L6,1.8l1,.57c.33-.19-.5-.75.06-1.26-.14.62.5.48.5,1L8,1l.42,1.17a1,1,0,0,1,.9-.76,1,1,0,0,0-.36.9l.93-.55L9.37,2.82c.62.11.65-.75,1.37-.06-.78-.23-.52.47-1,.47l.7.18Z" transform="translate(-0.69 -0.46)"/><path id="path3817" class="cls-8" d="M7.9,12.8a.69.69,0,0,1,.8-.53h2.08a.77.77,0,0,0,.85-.76V3.41H4.2v8.1a.78.78,0,0,0,.86.75H7.14a.68.68,0,0,1,.79.53" transform="translate(-0.69 -0.46)"/><ellipse id="ellipse3819" class="cls-2" cx="7.25" cy="7.38" rx="2.98" ry="3.91"/><path id="path3821" class="cls-1" d="M7.93,3.94c-1.64,0-3,1.75-3,3.9a1.77,1.77,0,0,0,0,.23H10.9a1.77,1.77,0,0,0,0-.23C10.91,5.69,9.58,3.94,7.93,3.94Z" transform="translate(-0.69 -0.46)"/><g id="g3823"><path id="path3825" class="cls-9" d="M8.83,6.81A1.14,1.14,0,0,0,8.52,6a1,1,0,0,0-1.17,0c-.36.36-.36.46-.24.58s.17.1.17.1,0,.25,0,.25L8.84,6.8" transform="translate(-0.69 -0.46)"/><path id="path3827" d="M8.09,5.93a.72.72,0,0,1,.62.75c-.32,0-.82-.08-.61-.11s.19-.07.08-.07A.23.23,0,0,1,8,6.43h.36c-.18-.11-.24-.14-.33-.14.21-.06.22-.07.13-.12s-.25,0-.29-.06-.07-.18.21-.18Z" transform="translate(-0.69 -0.46)"/><path id="path3829" class="cls-9" d="M7,7.6c0,.11.33.26.94.24s1-.22,1-.32-.06-.63-.06-.7S8.57,6.57,8,6.63s-.92.32-.92.48S7,7.6,7,7.6Z" transform="translate(-0.69 -0.46)"/><path id="path3831" class="cls-4" d="M8.13,7.74a.76.76,0,0,0,.62-.23c0-.06-.22-.23-.78-.23s-.81.2-.81.24.35.21.65.21" transform="translate(-0.69 -0.46)"/><path id="path3833" class="cls-4" d="M7.27,7.43c0,.08.21.21.54.21" transform="translate(-0.69 -0.46)"/><path id="path3835" class="cls-4" d="M7.42,7.36c0,.11.26.16.39.16" transform="translate(-0.69 -0.46)"/><path id="path3837" class="cls-4" d="M8.13,7.52a.46.46,0,0,0,.34-.18" transform="translate(-0.69 -0.46)"/><path id="path3839" class="cls-4" d="M8.13,7.62a.74.74,0,0,0,.53-.2" transform="translate(-0.69 -0.46)"/><path id="path3841" d="M7.14,7.35s0-.24,0-.28a.3.3,0,0,1,.28-.15c-.06.06-.19.19-.14.19l.17,0C7.53,7.13,7.21,7.23,7.14,7.35Z" transform="translate(-0.69 -0.46)"/><path id="path3843" d="M7.85,6.78c.46-.09.8-.09.94.06a2.48,2.48,0,0,1,.06.53s0,0-.08,0a2.1,2.1,0,0,0-.6-.15c-.12,0-.19-.08-.27-.08a1.34,1.34,0,0,1,.54,0,2.46,2.46,0,0,0-.6-.14,4.27,4.27,0,0,1,.72,0,1.44,1.44,0,0,0-.71-.15Z" transform="translate(-0.69 -0.46)"/><path id="path3845" d="M7.35,6.67c.19-.11.28-.41.41-.41s.19,0,.06.12-.36.44-.47.28" transform="translate(-0.69 -0.46)"/><path id="path3847" d="M7.36,6.45c-.13,0-.08-.17.08-.33-.06,0-.3.24-.3.33S7.25,6.65,7.36,6.45Z" transform="translate(-0.69 -0.46)"/></g><path id="path3849" class="cls-10" d="M8,7.28H7.81l0,3.61c0,.18.35.18.35,0V7.29Z" transform="translate(-0.69 -0.46)"/><path id="path3851" class="cls-4" d="M7.68,3c-.09-.17-.49-.08-.59,0A.67.67,0,0,1,6.81,3" transform="translate(-0.69 -0.46)"/><path id="path3853" class="cls-4" d="M6.76,3.16c.14,0,.42-.11.56-.11s.42.09.42.15a1.1,1.1,0,0,1-.4.12C7.09,3.32,6.89,3.16,6.76,3.16Z" transform="translate(-0.69 -0.46)"/><circle id="circle3855" class="cls-4" cx="6.64" cy="2.73" r="0.13"/><path id="path3857" class="cls-4" d="M8.25,3c.09-.17.49-.08.59,0A.54.54,0,0,0,9.12,3" transform="translate(-0.69 -0.46)"/><path id="path3859" class="cls-4" d="M9.17,3.16c-.13,0-.42-.11-.56-.11s-.41.09-.41.15a1,1,0,0,0,.39.12C8.84,3.32,9,3.16,9.17,3.16Z" transform="translate(-0.69 -0.46)"/><circle id="circle3861" class="cls-4" cx="7.92" cy="2.73" r="0.13"/><g id="g3863"><path id="path3865" class="cls-11" d="M7.59,10.25a.21.21,0,0,0,.31,0c0-.07-.21-.18-.24-.1a.27.27,0,0,1-.07.1Z" transform="translate(-0.69 -0.46)"/><path id="path3867" class="cls-11" d="M7.86,8.89a2.34,2.34,0,0,0-.93.19,4.2,4.2,0,0,1-1.12.15l-.68-.05a4.35,4.35,0,0,0,.48,1.12l1.15-.37c.15,0,.24,0,.4,0a1.39,1.39,0,0,0,1,.33c.05,0,.28,0,.34,0s.21,0,.25-.09.19,0,.19-.15a9.27,9.27,0,0,0-1-1.06Z" transform="translate(-0.69 -0.46)"/><path id="path3869" class="cls-11" d="M7.3,10.17c0,.11.24.13.31.06s-.06-.2-.2-.17-.11.11-.11.11Z" transform="translate(-0.69 -0.46)"/><g id="g3871"><path id="path3873" class="cls-11" d="M10.74,9.13H9.36c-.27,0-.3-.14-.59-.22a2.57,2.57,0,0,0-.79,0,1.88,1.88,0,0,0-.78.33s0,.06.12.13.41-.06.45-.08a3,3,0,0,1,.44,0,2.31,2.31,0,0,0,.7.7c.1,0,.29-.13.41-.11l1,.33a4.5,4.5,0,0,0,.41-1Z" transform="translate(-0.69 -0.46)"/><path id="path3875" class="cls-4" d="M7.42,9.07s.1,0,.09,0-.13.12-.15.1l-.1-.05" transform="translate(-0.69 -0.46)"/></g><path id="path3877" d="M8.33,9.45s.27.05.34.05,0,.21.08.34a2.41,2.41,0,0,1-.42-.39Z" transform="translate(-0.69 -0.46)"/><g id="g3879"><path id="path3881" class="cls-4" d="M8.58,9.11s0,.13-.1.16" transform="translate(-0.69 -0.46)"/><path id="path3883" class="cls-4" d="M8.7,9.27s-.06.14-.09.14" transform="translate(-0.69 -0.46)"/><path id="path3885" class="cls-4" d="M9.06,9.62a.71.71,0,0,1,0,.21" transform="translate(-0.69 -0.46)"/><path id="path3887" class="cls-4" d="M9.35,9.54a.65.65,0,0,0,.12.25" transform="translate(-0.69 -0.46)"/><path id="path3889" class="cls-4" d="M9.67,9.63a.65.65,0,0,0,.12.25" transform="translate(-0.69 -0.46)"/><path id="path3891" class="cls-4" d="M9.87,9.7A.79.79,0,0,0,10,10" transform="translate(-0.69 -0.46)"/><path id="path3893" class="cls-4" d="M10.13,9.76a.7.7,0,0,0,.12.26" transform="translate(-0.69 -0.46)"/></g><path id="path3895" class="cls-11" d="M7,10.05c0,.11.3.23.42,0S7.26,10,7.22,10Z" transform="translate(-0.69 -0.46)"/><g id="g3897"><path id="path3899" class="cls-4" d="M8.72,10.1a2,2,0,0,1-.59-.44" transform="translate(-0.69 -0.46)"/><path id="path3901" class="cls-4" d="M8.46,10.2a1.65,1.65,0,0,1-.54-.41" transform="translate(-0.69 -0.46)"/><path id="path3903" class="cls-4" d="M8.13,10.23a1.23,1.23,0,0,1-.47-.33" transform="translate(-0.69 -0.46)"/></g><g id="g3905"><line id="line3907" class="cls-4" x1="7.83" y1="9.29" x2="7.74" y2="9.35"/><line id="line3909" class="cls-4" x1="6.96" y1="9.08" x2="7.03" y2="9.22"/><line id="line3911" class="cls-4" x1="6.44" y1="9.02" x2="6.68" y2="9.19"/><path id="path3913" class="cls-4" d="M7.08,9.82A.44.44,0,0,1,7,9.65" transform="translate(-0.69 -0.46)"/><path id="path3915" class="cls-4" d="M6.91,9.83a.25.25,0,0,1,0-.14" transform="translate(-0.69 -0.46)"/><path id="path3917" class="cls-4" d="M6.58,9.58a.57.57,0,0,0,.06.26" transform="translate(-0.69 -0.46)"/><path id="path3919" class="cls-4" d="M6.32,9.68a.34.34,0,0,0,.08.2" transform="translate(-0.69 -0.46)"/><line id="line3921" class="cls-4" x1="5.3" y1="9.2" x2="5.44" y2="9.42"/><line id="line3923" class="cls-4" x1="5.06" y1="9.35" x2="5.16" y2="9.49"/><line id="line3925" class="cls-4" x1="4.87" y1="9.29" x2="4.99" y2="9.55"/></g><path id="path3927" class="cls-11" d="M6.74,9.94c0,.1.3.16.48,0s-.18-.18-.47,0" transform="translate(-0.69 -0.46)"/></g><path id="path3929" d="M6.76,7.11" transform="translate(-0.69 -0.46)"/><g id="g3931"><polygon id="polygon3933" class="cls-12" points="4.11 3.13 3.93 3.3 3.76 3.1 3.67 3.18 3.85 3.37 3.66 3.55 3.74 3.63 3.93 3.46 4.55 4.14 4.64 4.06 4.01 3.38 4.19 3.21 4.11 3.13"/><polygon id="polygon3935" class="cls-12" points="5.62 3.99 5.49 3.91 4.42 4.74 4.43 4.88 4.02 5.24 4.01 4.98 3.77 4.91 4.18 4.61 4.34 4.66 5.43 3.83 5.36 3.7 5.77 3.62 5.62 3.99"/><polygon id="polygon3937" class="cls-12" points="5.35 3.62 5.19 3.61 4.71 4.87 4.79 4.98 4.62 5.5 4.48 5.29 4.24 5.35 4.43 4.88 4.6 4.84 5.11 3.57 4.98 3.49 5.3 3.21 5.35 3.62"/></g><g id="g3939"><path id="path3941" class="cls-13" d="M11.11,4.06c.07-.13.13-.28.08-.33A.22.22,0,0,0,11,3.67c-.08,0-.27.06-.36,0a.58.58,0,0,0-.16-.1s-.07.2,0,.28.15,0,.18,0,.35,0,.36,0A1.33,1.33,0,0,1,11,4S11.11,4.06,11.11,4.06Z" transform="translate(-0.69 -0.46)"/><path id="path3943" class="cls-14" d="M10.94,4.74a.24.24,0,0,1,.22.13.41.41,0,0,1-.11.38c-.12.11-.12-.08-.12-.12S10.81,5,10.8,5a.33.33,0,0,1,.14-.23Z" transform="translate(-0.69 -0.46)"/><circle id="circle3945" class="cls-15" cx="9.56" cy="4.43" r="0.08"/><circle id="circle3947" class="cls-15" cx="9.55" cy="4.22" r="0.09"/><circle id="circle3949" class="cls-15" cx="9.6" cy="4.01" r="0.09"/><circle id="circle3951" class="cls-15" cx="9.65" cy="3.8" r="0.09"/><circle id="circle3953" class="cls-15" cx="9.67" cy="3.6" r="0.09"/><circle id="circle3955" class="cls-15" cx="9.88" cy="3.6" r="0.09"/><circle id="circle3957" class="cls-15" cx="9.87" cy="3.82" r="0.09"/><circle id="circle3959" class="cls-15" cx="9.84" cy="4.01" r="0.09"/><circle id="circle3961" class="cls-15" cx="9.76" cy="4.24" r="0.09"/><circle id="circle3963" class="cls-15" cx="9.91" cy="4.4" r="0.09"/><circle id="circle3965" class="cls-15" cx="10.11" cy="4.44" r="0.09"/><circle id="circle3967" class="cls-15" cx="10.03" cy="4.2" r="0.09"/><circle id="circle3969" class="cls-15" cx="10.09" cy="4.03" r="0.09"/><circle id="circle3971" class="cls-15" cx="10.08" cy="3.84" r="0.09"/><circle id="circle3973" class="cls-15" cx="10.09" cy="3.62" r="0.09"/><circle id="circle3975" class="cls-15" cx="10.28" cy="3.99" r="0.09"/><circle id="circle3977" class="cls-15" cx="10.25" cy="4.22" r="0.09"/><circle id="circle3979" class="cls-15" cx="10.5" cy="4.07" r="0.09"/><circle id="circle3981" class="cls-15" cx="10.46" cy="4.25" r="0.09"/><circle id="circle3983" class="cls-15" cx="10.59" cy="4.4" r="0.09"/><circle id="circle3985" class="cls-15" cx="9.75" cy="4.55" r="0.08"/><path id="path3987" class="cls-14" d="M11,3.94c.08,0,.23,0,.24.1s.08.06.15,0,.07,0,.07.08-.49.2-.51.24C10.87,4.29,10.85,4,11,3.94Z" transform="translate(-0.69 -0.46)"/><path id="path3989" class="cls-14" d="M10.7,5c.13,0,.27-.08.26,0a1.27,1.27,0,0,1-.21.44c-.08.06-.08-.12-.11-.14s-.19,0-.24,0S10.47,5,10.7,5Z" transform="translate(-0.69 -0.46)"/></g><g id="g3991"><polygon id="polygon3993" class="cls-7" points="4.96 10.04 5.06 10.13 5.1 10.05 5.19 10.11 5.11 10.19 5.22 10.26 5.14 10.34 5.05 10.27 4.9 10.43 4.86 10.35 4.99 10.19 4.9 10.12 4.96 10.04"/><path id="path3995" class="cls-7" d="M5.33,11.05c0-.11,0-.3.25-.23a.21.21,0,0,1-.19.28c-.12,0-.06,0-.06,0Z" transform="translate(-0.69 -0.46)"/><path id="path3997" class="cls-7" d="M5.45,11.07a.3.3,0,0,1,.25.36c.19,0,.24.09.25.24s-.11.19-.21.19-.43,0-.43,0L5,11.4Z" transform="translate(-0.69 -0.46)"/><path id="path3999" class="cls-16" d="M5.12,11.42a.73.73,0,0,0,.33-.18c0-.05.11,0,.11,0a.08.08,0,0,1,0,.11,1.18,1.18,0,0,1-.38.16C5.12,11.53,5.12,11.42,5.12,11.42Z" transform="translate(-0.69 -0.46)"/><path id="path4001" class="cls-16" d="M5.27,11.76a.78.78,0,0,1,.39,0s.12-.07.12-.07,0-.09-.08-.1a1.2,1.2,0,0,0-.42.08c-.06,0,0,.12,0,.12Z" transform="translate(-0.69 -0.46)"/><path id="path4003" class="cls-7" d="M5.31,10.94A.29.29,0,0,0,5,10.69c0-.19-.08-.25-.23-.26s-.19.09-.19.2a3.94,3.94,0,0,0,0,.43l.41.31Z" transform="translate(-0.69 -0.46)"/><path id="path4005" class="cls-16" d="M5,11.26c0-.1.13-.3.19-.32s0-.12,0-.12a.07.07,0,0,0-.1,0,1.3,1.3,0,0,0-.17.38c0,.06.1.06.1.06Z" transform="translate(-0.69 -0.46)"/><path id="path4007" class="cls-16" d="M4.62,11.11a.85.85,0,0,0,0-.4c0-.05.07-.11.07-.11s.1,0,.11.08a1.57,1.57,0,0,1-.09.43s-.13,0-.13,0Z" transform="translate(-0.69 -0.46)"/><path id="path4009" class="cls-7" d="M5,11.28,5.24,11c.11-.07.27.07.16.15s-.35.25-.35.25Z" transform="translate(-0.69 -0.46)"/><path id="path4011" class="cls-7" d="M5,11.3c.34.32.32.55.29.56s-.15,0-.17,0-.61-.62-.65-.67a.09.09,0,0,1,0-.15c.07,0,.24,0,.53.27Z" transform="translate(-0.69 -0.46)"/><path id="path4013" class="cls-7" d="M4.92,11.44c.3.31.27.39.27.39s-.22.07-.49-.2-.18-.45-.18-.45.16,0,.4.26Z" transform="translate(-0.69 -0.46)"/></g><g id="g4015"><path id="path4017" class="cls-7" d="M11.1,11.8l-.19.2-.47-.47v-.16l-.19-.21-.1-.07,0,0L10,11v0l-.11-.12.1-.08.11.1.07-.06-.12-.14.1-.07.13.12.06,0-.11-.15.09-.07.13.1h.07l.06.06v.07l.19.25h.09l0,0,.09-.05.07.07v.08l.38.34-.17.21L11,11.38c-.1-.1-.29.07-.2.15l.28.27Z" transform="translate(-0.69 -0.46)"/><polyline id="polyline4019" class="cls-4" points="9.85 10.91 10.07 10.69 10.15 10.61"/><polyline id="polyline4021" class="cls-4" points="9.54 10.61 9.77 10.39 9.85 10.31"/><polyline id="polyline4023" class="cls-4" points="9.47 10.54 9.7 10.31 9.78 10.23"/><line id="line4025" class="cls-4" x1="10.33" y1="10.6" x2="9.88" y2="11.02"/><path id="path4027" class="cls-4" d="M11,11.84l-.24-.29a.17.17,0,0,1,0-.25.19.19,0,0,1,.28,0l.22.21" transform="translate(-0.69 -0.46)"/><polygon id="polygon4029" points="9.64 10.61 9.69 10.6 9.83 10.75 9.78 10.81 9.64 10.68 9.64 10.61"/><polygon id="polygon4031" points="9.85 10.44 9.91 10.43 10.05 10.58 9.99 10.64 9.85 10.5 9.85 10.44"/><line id="line4033" class="cls-4" x1="9.88" y1="11.17" x2="9.94" y2="11.1"/><line id="line4035" class="cls-4" x1="10.02" y1="11.32" x2="10.09" y2="11.25"/><line id="line4037" class="cls-4" x1="10.13" y1="11.36" x2="10.2" y2="11.29"/><line id="line4039" class="cls-4" x1="10.03" y1="11.2" x2="10.1" y2="11.13"/><line id="line4041" class="cls-4" x1="10.36" y1="10.79" x2="10.43" y2="10.72"/><line id="line4043" class="cls-4" x1="10.5" y1="10.95" x2="10.57" y2="10.87"/><line id="line4045" class="cls-4" x1="10.61" y1="10.98" x2="10.68" y2="10.91"/><line id="line4047" class="cls-4" x1="10.51" y1="10.82" x2="10.58" y2="10.75"/></g></svg>